<?xml version="1.0" standalone="no"?>
<!DOCTYPE svg PUBLIC "-//W3C//DTD SVG 20010904//EN"
 "http://www.w3.org/TR/2001/REC-SVG-20010904/DTD/svg10.dtd">
<svg version="1.0" xmlns="http://www.w3.org/2000/svg"
 width="623.000000pt" height="624.000000pt" viewBox="0 0 623.000000 624.000000"
 preserveAspectRatio="xMidYMid meet">

<g transform="translate(0.000000,624.000000) scale(0.100000,-0.100000)"
fill="#000000" stroke="none">
<path d="M2935 6043 c-219 -26 -305 -41 -445 -75 -91 -22 -217 -58 -280 -80
-135 -46 -437 -192 -563 -272 -546 -345 -979 -896 -1175 -1496 -192 -586 -197
-1173 -16 -1759 302 -972 1132 -1720 2132 -1921 203 -41 310 -51 547 -51 248
0 339 8 540 47 393 76 767 233 1080 453 186 130 419 345 570 526 204 245 400
603 500 914 70 219 135 530 135 649 0 31 -21 45 -35 22 -20 -33 -25 8 -25 209
0 131 4 222 10 226 5 3 12 -6 16 -20 3 -14 13 -25 21 -25 13 0 14 13 9 88 -37
469 -224 976 -509 1376 -133 187 -338 407 -522 561 -95 80 -291 211 -430 287
-421 234 -901 352 -1410 346 -66 0 -133 -3 -150 -5z m460 -473 c384 -43 745
-173 1051 -379 164 -110 262 -190 380 -314 348 -360 552 -762 645 -1267 16
-87 22 -172 26 -352 6 -256 -7 -376 -63 -616 -149 -638 -622 -1235 -1213
-1531 -214 -108 -352 -157 -601 -213 l-145 -33 -325 0 c-318 0 -328 1 -452 28
-510 111 -897 321 -1233 668 -190 197 -318 375 -425 595 -108 221 -160 373
-204 594 -84 424 -45 925 100 1294 219 554 580 972 1074 1246 252 140 583 246
865 278 112 13 412 14 520 2z m-3014 -2573 c-23 -23 -26 402 -3 437 4 6 8 -88
10 -208 1 -124 -2 -224 -7 -229z"/>
<path d="M3180 5320 c-13 -8 -15 -254 -18 -2096 -2 -1679 0 -2089 10 -2101 11
-13 30 -15 113 -9 191 12 427 67 643 151 407 159 772 470 1017 865 157 254
265 596 296 935 30 331 -44 727 -195 1048 -221 471 -647 874 -1116 1056 -204
79 -416 133 -575 146 -38 3 -90 8 -115 10 -25 3 -52 0 -60 -5z m635 -477 c222
-90 404 -214 583 -397 65 -67 146 -160 179 -208 169 -238 284 -543 314 -833
13 -130 7 -375 -11 -435 -6 -19 -17 -78 -26 -130 -35 -216 -151 -475 -307
-682 -81 -109 -268 -292 -381 -373 -95 -68 -332 -191 -425 -220 -72 -23 -175
-16 -260 19 -36 14 -68 32 -73 39 -4 6 -8 726 -8 1598 0 1452 1 1588 16 1600
9 8 51 26 93 41 106 39 174 34 306 -19z"/>
<path d="M3792 3668 c-5 -7 -13 -24 -17 -38 -4 -14 -75 -185 -157 -380 -83
-195 -152 -361 -155 -367 -4 -10 9 -13 47 -13 l51 0 30 68 c16 37 39 88 51
115 l21 47 172 0 c132 0 175 -3 184 -13 6 -8 30 -58 55 -113 l43 -99 52 -3
c37 -2 51 0 51 10 0 8 -48 122 -106 253 -58 132 -133 303 -166 380 -34 77 -66
146 -71 153 -5 6 -24 12 -42 12 -18 0 -37 -6 -43 -12z m67 -207 c20 -38 101
-237 101 -246 0 -3 -54 -5 -120 -5 -95 0 -120 3 -120 14 0 12 93 247 106 268
9 13 13 9 33 -31z"/>
<path d="M4337 3674 c-4 -4 -7 -187 -7 -406 l0 -398 238 2 237 3 0 40 0 40
-171 3 c-127 2 -175 6 -183 16 -7 8 -12 127 -13 357 l-3 344 -45 3 c-25 2 -49
0 -53 -4z"/>
<path d="M1590 3275 l0 -436 53 3 52 3 3 188 c2 151 5 189 17 193 7 3 38 1 68
-6 47 -9 63 -19 105 -63 27 -29 89 -112 137 -185 l88 -132 53 0 c29 0 56 5 59
11 9 13 -165 276 -230 349 l-46 52 54 52 c64 60 81 102 75 190 -5 84 -46 144
-125 183 -55 26 -67 28 -210 31 l-153 4 0 -437z m311 312 c47 -31 61 -62 56
-125 -6 -90 -65 -132 -187 -132 l-70 0 0 140 0 140 84 0 c70 0 88 -4 117 -23z"/>
<path d="M2482 3405 c-58 -25 -109 -73 -136 -127 -22 -43 -26 -66 -26 -135 0
-141 49 -228 159 -283 39 -19 57 -22 140 -18 79 3 104 8 141 28 41 23 45 29
48 68 2 24 -1 42 -7 42 -6 0 -34 -10 -63 -21 -65 -26 -169 -29 -213 -6 -45 23
-75 59 -90 110 -12 40 -12 46 2 51 8 3 98 6 199 6 l184 0 0 29 c0 52 -40 160
-73 198 -17 20 -50 44 -72 54 -49 23 -146 24 -193 4z m168 -92 c32 -18 70 -80
70 -112 0 -21 -3 -21 -142 -19 l-143 3 1 32 c2 35 27 74 64 97 33 21 115 20
150 -1z"/>
</g>
</svg>
